HIERARCHY
ROOT hip
{
	OFFSET 0.000000 0.000000 0.000000 
	CHANNELS 6 Xposition Yposition Zposition Zrotation Xrotation Yrotation
	JOINT abdomen
	{
		OFFSET 0.000000 3.402643 0.000000 
		CHANNELS 3 Zrotation Xrotation Yrotation
		JOINT chest
		{
			OFFSET 0.000000 8.438565 -0.680529 
			CHANNELS 3 Zrotation Xrotation Yrotation
			JOINT neck
			{
				OFFSET 0.000000 10.207942 -0.272212 
				CHANNELS 3 Zrotation Xrotation Yrotation
				JOINT head
				{
					OFFSET 0.000000 3.130431 0.000000 
					CHANNELS 3 Zrotation Xrotation Yrotation
					End Site
					{
						OFFSET 0.000000 3.130435 0.000000 
					}
				}
			}
			JOINT lCollar
			{
				OFFSET 3.470700 6.669187 -0.816635 
				CHANNELS 3 Zrotation Xrotation Yrotation
				JOINT lShldr
				{
					OFFSET 3.198488 0.000000 0.000000 
					CHANNELS 3 Zrotation Xrotation Yrotation
					JOINT lForeArm
					{
						OFFSET 10.139888 0.000000 0.000000 
						CHANNELS 3 Zrotation Xrotation Yrotation
						JOINT lHand
						{
							OFFSET 8.370511 0.000000 0.000000 
							CHANNELS 3 Zrotation Xrotation Yrotation
							End Site
							{
								OFFSET 4.083176 0.000000 0.000000 
							}
						}
					}
				}
			}
			JOINT rCollar
			{
				OFFSET -3.470700 6.669187 -0.816635 
				CHANNELS 3 Zrotation Xrotation Yrotation
				JOINT rShldr
				{
					OFFSET -3.198488 0.000000 0.000000 
					CHANNELS 3 Zrotation Xrotation Yrotation
					JOINT rForeArm
					{
						OFFSET -10.139888 0.000000 0.000000 
						CHANNELS 3 Zrotation Xrotation Yrotation
						JOINT rHand
						{
							OFFSET -8.370511 0.000000 0.000000 
							CHANNELS 3 Zrotation Xrotation Yrotation
							End Site
							{
								OFFSET -4.083176 0.000000 0.000000 
							}
						}
					}
				}
			}
		}
	}
	JOINT lThigh
	{
		OFFSET 5.308129 -1.633274 1.361059 
		CHANNELS 3 Zrotation Xrotation Yrotation
		JOINT lShin
		{
			OFFSET -2.041588 -20.007561 0.000000 
			CHANNELS 3 Zrotation Xrotation Yrotation
			JOINT lFoot
			{
				OFFSET 0.000000 -19.190928 -1.224953 
				CHANNELS 3 Zrotation Xrotation Yrotation
				End Site
				{
					OFFSET 0.000000 -2.449906 4.627600 
				}
			}
		}
	}
	JOINT rThigh
	{
		OFFSET -5.308129 -1.633274 1.361059 
		CHANNELS 3 Zrotation Xrotation Yrotation
		JOINT rShin
		{
			OFFSET 2.041588 -20.007561 0.000000 
			CHANNELS 3 Zrotation Xrotation Yrotation
			JOINT rFoot
			{
				OFFSET 0.000000 -19.190928 -1.224953 
				CHANNELS 3 Zrotation Xrotation Yrotation
				End Site
				{
					OFFSET 0.000000 -2.449906 4.627600 
				}
			}
		}
	}
}
MOTION
Frames: 19
Frame Time: 0.033333
-0.182332 50.828625 -2.840180 -2.629964 -2.741255 -6.063366 -0.000000 -0.000002 -0.000000 8.232473 -4.813399 -13.326308 18.384668 -19.945793 6.139314 -0.954937 -15.993991 -0.145955 -2.000757 -0.069240 1.990978 -131.260147 -78.337128 -165.454590 0.677187 10.841702 -9.773738 -6.093917 -2.645000 -5.279079 1.990970 -0.069577 -2.000746 -83.710014 -70.002792 -137.419189 0.261137 15.050147 0.273032 -34.483101 -11.830746 -6.925148 11.890250 -4.768243 18.549810 -3.706687 22.609875 1.327084 -2.655293 -11.338669 -6.297994 -3.696099 -1.021242 11.604479 5.199119 16.002018 1.531733 -4.436982 -17.907780 -18.845957 
-0.137432 50.817360 -2.840338 -2.659209 -2.702169 -5.994597 -0.000000 -0.000002 -0.000000 8.147273 -5.065802 -13.318715 17.838505 -19.833801 5.745783 -0.954937 -15.993991 -0.145955 -2.000757 -0.069240 1.990978 -131.800278 -78.310501 -166.331787 0.515583 10.857038 -8.232972 -6.075821 -2.655578 -5.288900 1.990970 -0.069577 -2.000746 -84.308975 -69.939560 -138.878906 -0.070500 15.052445 1.587663 -34.572929 -13.010269 -6.706111 11.944866 -4.892103 18.547405 -3.779757 22.915894 1.360462 -2.631469 -11.541549 -6.378459 -3.688372 -0.963597 11.621092 5.176147 15.895988 1.545865 -4.434052 -17.906719 -18.913166 
-0.092533 50.804947 -2.840506 -2.698229 -2.663065 -5.926239 -0.000000 -0.000002 -0.000000 8.071959 -5.298846 -13.320322 17.325169 -19.725525 5.349020 -0.954937 -15.993991 -0.145955 -2.000757 -0.069240 1.990978 -130.454056 -78.452667 -165.156738 0.401334 10.872454 -7.099801 -6.057633 -2.675066 -5.279207 1.990970 -0.069577 -2.000746 -84.804131 -69.928612 -140.000244 -0.461192 15.035894 3.094264 -34.615208 -14.092312 -6.495105 12.020559 -5.014004 18.556501 -3.835882 23.193851 1.362029 -2.545414 -11.710605 -6.437449 -3.678165 -0.924730 11.606326 5.195500 15.910749 1.532468 -4.396538 -17.907028 -18.976049 
-0.047633 50.791470 -2.840664 -2.727471 -2.623981 -5.857382 -0.000000 -0.000002 -0.000000 7.966906 -5.522687 -13.320128 16.823915 -19.623373 4.968307 -0.954937 -15.993991 -0.145955 -2.000757 -0.069240 1.990978 -127.462952 -78.708260 -162.168350 0.326414 10.870299 -6.393746 -6.030596 -2.694474 -5.289069 1.990970 -0.069577 -2.000746 -85.408203 -69.953056 -140.953674 -0.876150 15.018069 4.732209 -34.598099 -14.983073 -6.278731 12.091728 -5.146516 18.557558 -3.904197 23.521498 1.424301 -2.519495 -11.941291 -6.530555 -3.658685 -0.895736 11.610714 5.187330 15.944117 1.534025 -4.373391 -17.952141 -19.034039 
-0.002734 50.777172 -2.840821 -2.766489 -2.584877 -5.789397 -0.000000 -0.000002 -0.000000 7.852209 -5.746755 -13.320161 16.356228 -19.535038 4.589254 -0.954937 -15.993991 -0.145955 -2.000757 -0.069240 1.990978 -122.995270 -79.011314 -157.575027 0.298933 10.869390 -6.145133 -6.011885 -2.703303 -5.289107 1.990970 -0.069577 -2.000746 -86.020264 -70.013771 -141.605835 -1.326991 14.985993 6.511302 -34.537979 -15.649111 -6.085771 12.184817 -5.297553 18.574427 -3.961159 23.808561 1.406545 -2.458381 -12.136652 -6.572229 -3.639194 -0.905513 11.610867 5.187732 15.954258 1.533850 -4.368138 -17.977552 -19.106682 
0.042165 50.762093 -2.840979 -2.805526 -2.555532 -5.720894 -0.000000 -0.000002 -0.000000 7.697998 -5.952125 -13.336276 15.908767 -19.433712 4.216082 -0.954937 -15.993991 -0.145955 -2.000757 -0.069240 1.990978 -117.280067 -79.279396 -151.586456 0.320013 10.880225 -6.354179 -6.038920 -2.683897 -5.279245 1.990970 -0.069577 -2.000746 -86.281555 -70.599106 -140.091827 -2.150853 14.872921 9.793872 -34.038612 -15.594269 -5.921846 12.268286 -5.449078 18.570883 -4.039098 24.124475 1.462542 -2.422402 -12.319619 -6.627645 -3.628980 -0.915159 11.600622 5.216470 15.966072 1.519201 -4.362780 -18.013157 -19.166582 
0.087064 50.746284 -2.841136 -2.834766 -2.516452 -5.651910 -0.000000 -0.000002 -0.000000 7.553317 -6.138094 -13.347859 15.474961 -19.358084 3.846808 -0.954937 -15.993991 -0.145955 -2.000757 -0.069240 1.990978 -110.742813 -79.456741 -144.668625 0.388887 10.863222 -7.039910 -6.076720 -2.665302 -5.288942 1.990970 -0.069577 -2.000746 -86.061729 -71.758972 -136.464188 -3.363674 14.641749 14.635406 -33.084343 -15.023498 -5.814629 12.341262 -5.571702 18.580975 -4.075520 24.405272 1.450613 -2.362190 -12.500811 -6.672878 -3.619224 -0.915209 11.601230 5.217771 15.996787 1.508896 -4.364944 -18.059614 -19.229799 
0.131962 50.729935 -2.841304 -2.873782 -2.477354 -5.583305 -0.000000 -0.000002 -0.000000 7.388687 -6.305063 -13.352757 15.051003 -19.270721 3.501658 -0.954937 -15.993991 -0.145955 -2.000757 -0.069240 1.990978 -103.764412 -79.522964 -137.180954 0.515132 10.866790 -8.223296 -6.102863 -2.636169 -5.279041 1.990970 -0.069577 -2.000746 -85.489777 -73.003334 -132.328903 -4.589828 14.291954 19.675236 -32.114517 -14.392479 -5.777617 12.441278 -5.731674 18.581089 -4.167441 24.748383 1.500181 -2.346522 -12.716407 -6.744977 -3.580150 -0.924365 11.602729 5.218090 16.006649 1.518488 -4.369768 -18.108006 -19.304369 
0.176862 50.713142 -2.841450 -2.912816 -2.448009 -5.515146 -0.000000 -0.000002 -0.000000 7.204362 -6.472374 -13.373094 14.649852 -19.199179 3.148132 -0.954937 -15.993991 -0.145955 -2.000757 -0.069240 1.990978 -97.108147 -79.432617 -129.916122 0.695616 10.841592 -9.922893 -6.129916 -2.616759 -5.269182 1.990970 -0.069577 -2.000746 -84.514633 -74.303009 -127.684784 -5.835171 13.817543 24.866945 -31.119106 -13.720894 -5.810904 12.544168 -5.882075 18.590229 -4.231957 25.066133 1.544617 -2.302823 -12.889042 -6.823881 -3.570985 -0.954345 11.619658 5.240397 16.030132 1.524964 -4.360900 -18.200064 -19.372269 
0.221761 50.696003 -2.841608 -2.942055 -2.408933 -5.446033 -0.000000 -0.000002 -0.000000 7.019838 -6.630063 -13.394458 14.269672 -19.124817 2.800361 -0.954937 -15.993991 -0.145955 -2.000757 -0.069240 1.990978 -91.046570 -79.257057 -123.188263 0.931733 10.805164 -12.138891 -6.156895 -2.596460 -5.259321 1.990970 -0.069577 -2.000746 -82.866501 -75.648842 -122.256012 -7.050982 13.225506 30.175535 -30.108406 -13.010602 -5.883986 12.633927 -6.032038 18.617268 -4.303174 25.361300 1.541640 -2.236734 -13.091641 -6.895505 -3.539631 -1.002473 11.596789 5.219947 16.056801 1.537133 -4.383907 -18.252357 -19.436554 
0.266661 50.678680 -2.841776 -2.981068 -2.369839 -5.377285 -0.000000 -0.000002 -0.000000 6.815166 -6.758992 -13.422666 13.902592 -19.077011 2.466958 -0.954937 -15.993991 -0.145955 -2.000757 -0.069240 1.990978 -86.146500 -79.059235 -117.549202 1.215364 10.739244 -14.909838 -6.183144 -2.568216 -5.249429 1.990970 -0.069577 -2.000746 -80.427689 -76.998634 -115.960434 -8.223900 12.503161 35.584240 -29.063025 -12.258608 -6.006583 12.723454 -6.191628 18.597073 -4.361805 25.659855 1.575033 -2.197682 -13.267842 -6.941073 -3.518546 -1.031243 11.585209 5.251943 16.088129 1.522666 -4.398128 -18.333698 -19.537153 
0.311559 50.661266 -2.841934 -3.020079 -2.330747 -5.308481 -0.000000 -0.000002 -0.000000 6.610284 -6.878243 -13.442038 13.534153 -19.009277 2.129540 -0.954937 -15.993991 -0.145955 -2.000757 -0.069240 1.990978 -82.589119 -78.930176 -113.183495 1.558008 10.659390 -18.235851 -6.328298 -2.461354 -5.219674 1.990970 -0.069577 -2.000746 -76.918755 -78.321144 -108.546471 -9.337767 11.663907 41.060013 -28.006542 -11.488042 -6.149039 12.830462 -6.351794 18.609554 -4.448637 25.973774 1.616141 -2.145602 -13.451659 -7.022474 -3.497043 -1.079227 11.591258 5.282349 16.140509 1.507225 -4.404115 -18.370153 -19.576481 
0.356458 50.643852 -2.842079 -3.049337 -2.301428 -5.239755 -0.000000 -0.000002 -0.000000 6.385520 -6.988061 -13.466908 13.178621 -18.968346 1.793845 -0.954937 -15.993991 -0.145955 -2.000757 -0.069240 1.990978 -79.339104 -78.810890 -108.940384 1.979173 10.515412 -22.480583 -6.508692 -2.315613 -5.180023 1.990970 -0.069577 -2.000746 -72.030357 -79.546768 -99.682617 -10.387502 10.715536 46.570480 -26.929977 -10.697804 -6.321237 12.916516 -6.483981 18.632179 -4.488348 26.264458 1.616503 -2.126354 -13.598989 -7.049444 -3.473353 -1.129345 11.577492 5.317188 16.242523 1.501159 -4.443577 -18.451202 -19.667229 
0.401358 50.626530 -2.842247 -3.088347 -2.262338 -5.171384 -0.000000 -0.000002 -0.000000 6.170383 -7.088024 -13.501985 12.787028 -17.761297 1.675313 -0.954937 -15.993991 -0.145955 -2.000757 -0.069240 1.990978 -75.546883 -78.563782 -103.765289 2.518090 10.295502 -27.928726 -6.724919 -2.139871 -5.120768 1.990970 -0.069577 -2.000746 -65.277290 -80.633102 -88.934273 -11.325477 9.657122 52.072121 -25.840647 -9.908896 -6.503675 13.003940 -6.642395 18.623999 -4.537392 26.535244 1.658247 -2.116399 -13.787436 -7.152619 -3.449700 -1.176661 11.573994 5.339432 16.327978 1.496078 -4.462344 -18.513819 -19.738768 
0.446257 50.609558 -2.842405 -3.127356 -2.223250 -5.101908 -0.000000 -0.000002 -0.000000 5.945076 -7.168669 -13.522050 12.325595 -15.425458 1.795009 -0.954937 -15.993991 -0.145955 -2.000757 -0.069240 1.990978 -71.485764 -78.202957 -98.033508 3.123352 9.967767 -34.384155 -6.978392 -1.935758 -5.071261 1.990970 -0.069577 -2.000746 -56.578438 -81.491920 -76.227715 -12.161867 8.504780 57.566669 -24.732346 -9.099083 -6.676181 13.082459 -6.791567 18.630785 -4.603246 26.822498 1.684898 -2.059387 -13.952803 -7.203235 -3.413792 -1.235961 11.569939 5.370850 16.400887 1.471220 -4.479303 -18.578075 -19.792253 
0.491156 50.592865 -2.842562 -3.156593 -2.184185 -5.033072 -0.000000 -0.000002 -0.000000 5.729418 -7.239429 -13.562734 11.905581 -13.091565 1.952876 -0.954937 -15.993991 -0.145955 -2.000757 -0.069240 1.990978 -67.349037 -77.697617 -91.980270 3.751973 9.519578 -41.660637 -7.250011 -1.721962 -4.992494 1.990970 -0.069577 -2.000746 -46.027615 -82.016670 -61.661766 -12.882069 7.296970 63.022114 -23.617016 -8.272604 -6.848946 13.194901 -6.961770 18.625525 -4.687424 27.126999 1.727005 -2.020593 -14.083383 -7.273958 -3.397482 -1.285645 11.565643 5.414460 16.479910 1.453460 -4.486855 -18.629873 -19.847357 
0.536055 50.576698 -2.842720 -3.195622 -2.154850 -4.964031 -0.000000 -0.000002 -0.000000 5.484047 -7.300779 -13.587183 11.464093 -10.762742 2.129770 -0.954937 -15.993991 -0.145955 -2.000757 -0.069240 1.990978 -63.426392 -77.076767 -85.962593 4.354544 8.944865 -49.581730 -7.559931 -1.489463 -4.923542 1.990970 -0.069577 -2.000746 -34.483841 -82.187988 -46.147263 -13.482043 6.027938 68.418068 -22.486605 -7.465239 -7.003011 13.400591 -7.182389 18.664879 -4.734557 27.357798 1.749425 -2.052725 -14.082479 -7.360540 -3.378754 -1.344894 11.560498 5.435785 16.544506 1.469067 -4.529009 -18.685667 -19.948101 
0.580954 50.561165 -2.842876 -3.234629 -2.115768 -4.894935 -0.000000 -0.000002 -0.000000 5.257965 -7.332634 -13.623056 11.029596 -8.456506 2.346858 -0.954937 -15.993991 -0.145955 -2.000757 -0.069240 1.990978 -59.876244 -76.348778 -80.175583 4.908730 8.246107 -57.974159 -7.877144 -1.226092 -4.835094 1.990970 -0.069577 -2.000746 -23.358421 -81.919876 -31.071476 -13.952003 4.727661 73.723015 -21.359297 -6.658653 -7.138242 13.491271 -7.324000 18.681629 -4.784799 27.608282 1.782766 -2.037243 -14.219191 -7.457502 -3.330220 -1.403494 11.577136 5.470512 16.636612 1.452254 -4.549578 -18.706617 -20.014750 
0.625854 50.546333 -2.843046 -3.263865 -2.076707 -4.825433 -0.000000 -0.000002 -0.000000 5.022111 -7.374238 -13.649809 10.609092 -6.172798 2.581399 -0.954937 -15.993991 -0.145955 -2.000757 -0.069240 1.990978 -56.733521 -75.555557 -74.755722 5.373153 7.457724 -66.660393 -8.215642 -0.974017 -4.746782 1.990970 -0.069577 -2.000746 -13.612538 -81.326920 -17.422953 -14.296091 3.399989 78.940437 -20.203842 -5.862950 -7.215675 13.565702 -7.471514 18.719889 -4.845371 27.856092 1.789685 -1.966695 -14.369234 -7.499313 -3.307879 -1.460619 11.552973 5.482143 16.694304 1.459515 -4.533612 -18.772047 -20.080873 
